<svg xmlns="http://www.w3.org/2000/svg" xmlns:xlink="http://www.w3.org/1999/xlink" width="24" height="24" version="1.1" x="0px" y="0px" viewBox="0 0 1000 1000" enable-background="new 0 0 1000 1000" xml:space="preserve">
<metadata> Svg Vector Icons : http://www.onlinewebfonts.com/icon </metadata>
<g className="fill-black"><g transform="translate(0.000000,511.000000) scale(0.100000,-0.100000)"><path d="M3068.9,3560.2c-363.5-70.8-646.6-218.1-916.3-474.4c-248.7-239.1-430.4-564.3-499.3-901c-36.3-177.9-28.7-508.8,19.1-688.7C1831.2,876.4,2340.1,377.1,2956,235.5c156.9-36.3,401.7-57.4,466.8-42.1c55.5,13.4,55.5,11.5,17.2,313.7l-9.6,80.3h-158.8c-591.1,0-1098,407.5-1228.1,989c-47.8,218.1-30.6,539.4,42.1,751.8c107.1,321.4,325.2,568.1,629.4,717.4c376.9,185.6,793.9,189.4,1161.2,11.5l149.2-70.8l105.2,158.8l105.2,158.8l-44,26.8c-78.4,51.7-296.5,143.5-438.1,185.6C3616,3556.4,3189.4,3583.2,3068.9,3560.2z"/><path d="M6349.6,3539.2c-227.7-47.8-575.8-198.9-566.3-244.9c1.9-9.6,45.9-84.2,97.6-164.5l91.8-145.4l151.1,72.7c369.2,177.9,786.2,174.1,1163.1-11.5c304.2-149.2,522.2-396,629.4-717.4c70.8-208.5,88-526.1,42.1-746c-91.8-434.2-380.7-765.2-803.4-924c-128.1-47.8-193.2-59.3-369.2-67l-214.2-7.7L6560,455.5c-5.7-68.9-15.3-153-21-187.5c-7.7-53.6-3.8-63.1,40.2-74.6c67-17.2,309.9,5.7,476.3,44C7746,392.4,8297,1016,8363.9,1716.2c72.7,746-373,1461.5-1086.5,1746.5C7005.7,3569.8,6634.6,3600.4,6349.6,3539.2z"/><path d="M4694.9,3122.2c-415.1-86.1-778.6-317.5-1048.3-671.4c-91.8-120.5-204.7-346.2-264-524.1c-49.7-151.1-53.6-185.6-53.6-468.7c-1.9-298.4,0-309.9,63.1-495.4c225.7-654.2,769-1098,1448.1-1182.2c707.8-86.1,1461.5,382.6,1729.3,1077c93.8,242.9,120.5,413.2,109,677.2c-9.6,265.9-65,464.8-187.5,694.4C6137.3,2892.6,5389.3,3263.7,4694.9,3122.2z M5412.2,2703.2c401.7-128.2,690.6-415.1,826.4-824.5c45.9-137.7,51.7-179.8,51.7-420.8c-1.9-237.2-7.7-285-51.7-420.8c-109-329-340.5-598.7-633.2-738.4c-221.9-105.2-350.1-133.9-596.9-135.8c-367.3-1.9-665.7,112.9-916.3,350.1c-156.9,149.2-258.2,309.9-329,524.1c-45.9,135.8-51.6,181.7-51.6,420.8c0,239.1,5.7,285,51.6,420.8c153,459.1,491.6,761.3,969.9,862.7C4920.6,2779.8,5222.9,2764.4,5412.2,2703.2z"/><path d="M1909.6,407.7C947.4-64.8,276-1050,123-2211.1l-23-168.4l72.7-103.3c82.3-120.5,59.3-111,495.5-200.9c403.6-82.2,895.3-151.1,912.5-128.2c9.6,15.3,40.2,256.3,44,348.1c0,9.6-110.9,32.5-248.7,51.7c-135.8,19.1-388.3,61.2-560.5,93.7L503.6-2257l11.5,78.4c55.5,348.2,166.4,711.6,302.2,981.4c277.4,550.9,707.8,985.2,1235.8,1245.3l225.7,111L2210,335c-38.3,97.6-74.6,176-80.3,176C2123.9,511,2024.4,465.1,1909.6,407.7z"/><path d="M7792,335l-68.9-177.9l174.1-82.3c820.6-390.2,1377.3-1140.1,1561-2106.2c22.9-118.6,38.2-218.1,34.4-221.9c-13.4-13.4-616-124.3-847.4-155c-135.8-19.1-254.4-38.3-262.1-44c-7.7-5.7-1.9-93.7,9.6-193.2l23-181.7l67,5.7c233.4,21.1,962.2,151.1,1207.1,214.3c51.7,15.3,86.1,44,139.7,122.4l70.8,101.4l-22.9,179.8c-28.7,244.9-130.1,635.1-225.7,878C9347.2-560.3,8796.2,57.6,8119.1,396.2C7843.6,534,7872.3,537.8,7792,335z"/><path d="M3623.6,2.1c-311.8-149.2-537.5-313.7-824.5-598.8c-283.1-285-461-528-627.4-860.8c-200.9-397.9-302.3-749.9-373-1272.1c-9.6-74.6-3.8-88,135.8-277.4c9.6-15.3,401.7-97.6,723.1-154.9c692.5-120.5,1251.1-170.3,2075.5-185.5c1073.2-19.1,1964.6,53.6,2869.4,235.3c474.4,93.8,457.2,88,539.5,206.6l68.9,101.4l-17.2,151.1c-68.9,552.8-271.6,1099.9-585.4,1576.3c-185.6,279.3-577.7,677.2-845.5,857c-166.4,112.9-568.1,323.3-583.4,308c-11.5-11.5-145.4-348.1-139.6-352c1.9-1.9,93.7-45.9,204.7-99.5c535.6-258.2,966-690.6,1243.4-1245.3c116.7-233.4,216.2-520.3,265.9-763.3c51.6-260.1,57.4-292.7,38.3-304.1c-9.6-5.7-147.3-34.5-304.2-67c-1360.1-265.9-2972.7-300.3-4438-91.8c-321.4,45.9-824.5,143.5-843.6,164.5c-17.2,21,30.6,286.9,89.9,493.5c231.5,824.5,751.8,1469.1,1461.5,1813.5c110.9,53.6,202.8,97.6,204.7,99.5c9.6,5.7-135.8,353.9-145.4,353.9C3811.1,90.2,3723.1,50,3623.6,2.1z"/></g></g>
</svg>